<?xml version="1.0" encoding="UTF-8"?>
<!DOCTYPE svg PUBLIC "-//W3C//DTD SVG 1.1//EN" "http://www.w3.org/Graphics/SVG/1.1/DTD/svg11.dtd">
    <svg version="1.1" xmlns="http://www.w3.org/2000/svg" width="1080" height="1080">
    <path d="M0 0 C356.4 0 712.8 0 1080 0 C1080 356.4 1080 712.8 1080 1080 C723.6 1080 367.2 1080 0 1080 C0 723.6 0 367.2 0 0 Z " fill="#FEFEFE" transform="translate(0,0)"/>
    <path d="M0 0 C46.49767524 36.52363688 61.71411447 106.3498395 80.24479675 159.39625549 C84.65587036 172.01618603 89.12045228 184.61692833 93.59298706 197.21517944 C97.70462762 208.79828468 101.79832537 220.38732949 105.859375 231.98828125 C141.76960364 344.15610927 141.76960364 344.15610927 216 432.125 C216.56912109 432.52025879 217.13824219 432.91551758 217.72460938 433.32275391 C227.29678042 439.87696325 236.88761385 444.77511779 248 448.125 C248.6923877 448.33382813 249.38477539 448.54265625 250.09814453 448.7578125 C265.19129741 453.14249309 279.44091533 452.48641991 295 451.125 C295 452.775 295 454.425 295 456.125 C271.66993649 463.40274105 242.53763255 468.50928487 219 459.125 C218.00355469 458.76277344 217.00710938 458.40054687 215.98046875 458.02734375 C202.80566223 452.93354569 190.99240284 445.96440807 180 437.125 C178.61361328 436.04412109 178.61361328 436.04412109 177.19921875 434.94140625 C167.55770578 427.29092707 158.82489621 418.62665969 151 409.125 C150.18015625 408.13242187 149.3603125 407.13984375 148.515625 406.1171875 C137.87617628 393.01939578 129.07906591 378.8164432 121.03222656 364.00878906 C120.06995341 362.25266332 119.07901187 360.51233098 118.0859375 358.7734375 C100.44408537 327.19234418 89.8310157 291.57798977 78.1875 257.5 C77.64639587 255.91848648 77.64639587 255.91848648 77.09436035 254.30502319 C76.073499 251.31658106 75.05730852 248.32659863 74.04296875 245.3359375 C73.73427353 244.43248093 73.42557831 243.52902435 73.10752869 242.59819031 C72.82865311 241.7722084 72.54977753 240.9462265 72.26245117 240.09521484 C72.01742355 239.37328949 71.77239594 238.65136414 71.51994324 237.90756226 C71 236.125 71 236.125 71 234.125 C65.03973619 234.02019911 59.08395307 233.98180618 53.12280273 234.00292969 C51.09861772 234.0009919 49.07436523 233.98141791 47.05053711 233.94335938 C35.36834801 233.36308993 35.36834801 233.36308993 24.7644043 237.27954102 C22.52321373 239.78535019 20.79045834 242.28902448 19 245.125 C8.55418694 255.90182622 -3.72790003 261.41759903 -18 265.125 C-18.67546875 265.31191406 -19.3509375 265.49882813 -20.046875 265.69140625 C-26.55626718 267.3453353 -32.93130291 267.50927172 -39.625 267.5 C-40.77202393 267.49911377 -41.91904785 267.49822754 -43.10083008 267.49731445 C-54.83058621 267.33415962 -64.29718257 264.82346954 -75 260.125 C-75.17500534 260.73801971 -75.35001068 261.35103943 -75.53031921 261.9826355 C-77.27210796 267.95190663 -79.2881044 273.73060469 -81.58203125 279.5078125 C-81.91869308 280.36575409 -82.25535492 281.22369568 -82.60221863 282.1076355 C-83.66856016 284.8232509 -84.74023089 287.53672035 -85.8125 290.25 C-88.5520778 297.20426452 -91.28523502 304.16100762 -94 311.125 C-94.30764282 311.91370483 -94.61528564 312.70240967 -94.93225098 313.51501465 C-95.78591941 315.71317303 -96.6309529 317.91442406 -97.47265625 320.1171875 C-97.72207474 320.75802277 -97.97149323 321.39885803 -98.22846985 322.05911255 C-100.76020284 328.7461501 -101.24717402 333.8030764 -98.375 340.375 C-95.35896616 345.72499642 -90.98795708 349.45394221 -85 351.125 C-82.00676686 351.55982779 -79.0139866 351.87547605 -76 352.125 C-76 353.775 -76 355.425 -76 357.125 C-91.18 357.125 -106.36 357.125 -122 357.125 C-120.90993645 371.29582621 -120.14129547 377.77656945 -110 387.125 C-103.49800457 392.20915942 -94.92745139 392.34051262 -87 393.125 C-87 394.445 -87 395.765 -87 397.125 C-119.67 397.125 -152.34 397.125 -186 397.125 C-186 395.805 -186 394.485 -186 393.125 C-184.9378125 392.96644531 -183.875625 392.80789063 -182.78125 392.64453125 C-172.05048068 390.92415726 -164.22120915 388.80247171 -157.25 379.91796875 C-152.22916463 372.71620802 -152.41128048 365.76189005 -152 357.125 C-159.59 357.125 -167.18 357.125 -175 357.125 C-175 355.475 -175 353.825 -175 352.125 C-174.31035156 352.08761719 -173.62070312 352.05023437 -172.91015625 352.01171875 C-167.19670242 351.6120121 -162.2288688 350.8030029 -156.875 348.74609375 C-155 348.125 -155 348.125 -152 348.125 C-152.03630739 318.06871167 -152.09295136 288.01251382 -152.17792095 257.95632458 C-152.18793821 254.4065931 -152.19778237 250.85686116 -152.20751953 247.30712891 C-152.2094609 246.60045169 -152.21140228 245.89377447 -152.21340248 245.16568279 C-152.2444097 233.72857344 -152.26139955 222.29148414 -152.27319422 210.85434067 C-152.28561242 199.11567605 -152.31312887 187.37711657 -152.35461307 175.63851833 C-152.37725593 169.04640104 -152.39290897 162.4544338 -152.39188385 155.86227417 C-152.39113893 149.65704464 -152.40902291 143.45214718 -152.44116783 137.24700356 C-152.44968367 134.97022325 -152.45140538 132.69340578 -152.44580269 130.41661644 C-152.43916693 127.30551375 -152.45707443 124.19546886 -152.48101807 121.08447266 C-152.47325765 120.18562064 -152.46549723 119.28676863 -152.45750165 118.36067867 C-152.55005754 111.55704987 -154.28430765 106.33670921 -158.7109375 101.1015625 C-159.53464844 100.43253906 -159.53464844 100.43253906 -160.375 99.75 C-160.91898437 99.28851563 -161.46296875 98.82703125 -162.0234375 98.3515625 C-167.3165342 95.06691356 -172.3547708 94.85847562 -178.375 95 C-179.11105469 95.00902344 -179.84710938 95.01804687 -180.60546875 95.02734375 C-182.4037888 95.05069856 -184.20193911 95.08656164 -186 95.125 C-186.495 92.65 -186.495 92.65 -187 90.125 C-186.42174469 90.05179535 -185.84348938 89.9785907 -185.24771118 89.90316772 C-170.59280768 88.03990374 -155.97712859 85.98803447 -141.375 83.75 C-140.38440582 83.59914948 -139.39381165 83.44829895 -138.37319946 83.2928772 C-125.04273009 81.26155102 -111.73300971 79.15156116 -98.46826172 76.72314453 C-84.08094561 74.13110232 -70.0661728 72.8039582 -55.45874023 72.91918945 C-53.03944497 72.93767617 -50.6205312 72.93969645 -48.20117188 72.93945312 C-40.40163545 72.95767983 -32.75056843 73.14738037 -25 74.125 C-23.21996514 70.0364584 -21.44189643 65.94706876 -19.66552734 61.85693359 C-19.06285723 60.46998878 -18.45968047 59.08326399 -17.85595703 57.69677734 C-16.41251297 54.38140418 -14.97515239 51.06371233 -13.55273438 47.73925781 C-12.60271109 45.52791431 -11.63861253 43.32246877 -10.65039062 41.12792969 C-9.09250282 37.55229562 -8.02118191 34.82400292 -7.90234375 30.90234375 C-9.41679854 27.07039586 -11.69863579 24.60026368 -14.5625 21.6875 C-15.11115723 21.11620361 -15.65981445 20.54490723 -16.22509766 19.95629883 C-17.80158651 18.33000905 -19.39659565 16.72469889 -21 15.125 C-22.03060547 14.07699219 -22.03060547 14.07699219 -23.08203125 13.0078125 C-39.9807435 -2.97049058 -60.52626961 -5.69194645 -82.77050781 -5.07177734 C-89.78115032 -4.64460938 -96.30143961 -2.93032536 -103 -0.875 C-104.31818545 -0.49452593 -105.63717778 -0.11683427 -106.95703125 0.2578125 C-107.96121094 0.54398437 -108.96539062 0.83015625 -110 1.125 C-110.495 -1.845 -110.495 -1.845 -111 -4.875 C-99.89555857 -9.19543665 -88.6093296 -12.23385999 -77 -14.875 C-75.81688232 -15.15972168 -75.81688232 -15.15972168 -74.60986328 -15.45019531 C-48.44893059 -21.3268123 -21.83749691 -15.13983381 0 0 Z " fill="#AD9553" transform="translate(541,283.875)"/>
    <path d="M0 0 C46.49767524 36.52363688 61.71411447 106.3498395 80.24479675 159.39625549 C84.65587036 172.01618603 89.12045228 184.61692833 93.59298706 197.21517944 C97.70462762 208.79828468 101.79832537 220.38732949 105.859375 231.98828125 C141.76960364 344.15610927 141.76960364 344.15610927 216 432.125 C216.56912109 432.52025879 217.13824219 432.91551758 217.72460938 433.32275391 C227.29678042 439.87696325 236.88761385 444.77511779 248 448.125 C248.6923877 448.33382813 249.38477539 448.54265625 250.09814453 448.7578125 C265.19129741 453.14249309 279.44091533 452.48641991 295 451.125 C295 452.775 295 454.425 295 456.125 C271.66993649 463.40274105 242.53763255 468.50928487 219 459.125 C218.00355469 458.76277344 217.00710938 458.40054687 215.98046875 458.02734375 C202.80566223 452.93354569 190.99240284 445.96440807 180 437.125 C178.61361328 436.04412109 178.61361328 436.04412109 177.19921875 434.94140625 C167.55770578 427.29092707 158.82489621 418.62665969 151 409.125 C150.18015625 408.13242187 149.3603125 407.13984375 148.515625 406.1171875 C137.87617628 393.01939578 129.07906591 378.8164432 121.03222656 364.00878906 C120.06995341 362.25266332 119.07901187 360.51233098 118.0859375 358.7734375 C99.39089862 325.30700988 88.31940494 287.32980222 76.11621094 251.18432617 C75.78262573 250.19717117 75.44904053 249.21001617 75.10534668 248.19294739 C74.47578113 246.32849772 73.84754555 244.46359829 73.2208252 242.59819031 C72.94202515 241.7722084 72.6632251 240.9462265 72.37597656 240.09521484 C72.13316956 239.37328949 71.89036255 238.65136414 71.64019775 237.90756226 C71.01520561 236.05660303 71.01520561 236.05660303 70 234.125 C49.705 233.63 49.705 233.63 29 233.125 C31.64 228.505 34.28 223.885 37 219.125 C46.24 219.125 55.48 219.125 65 219.125 C64.20335937 216.73507812 63.40671875 214.34515625 62.5859375 211.8828125 C60.98828125 207.08984375 59.390625 202.296875 57.79296875 197.50390625 C57.53220551 196.72199417 57.27144226 195.94008209 57.0027771 195.13447571 C56.4727486 193.54362417 55.943642 191.95246521 55.41543579 190.36100769 C54.06577751 186.29851308 52.69993284 182.24277761 51.30224609 178.1965332 C51.02861237 177.3967807 50.75497864 176.5970282 50.47305298 175.77304077 C49.95729927 174.26703524 49.43605942 172.76289162 48.90805054 171.26113892 C46.8612468 165.25272847 46.11504802 159.46778111 45.484375 153.1484375 C44.3783927 142.87497807 41.89443695 132.25337895 37 123.125 C36.53464844 122.23425781 36.06929687 121.34351563 35.58984375 120.42578125 C32.91125077 115.33793111 32.91125077 115.33793111 29.86181641 110.47021484 C25.73548983 104.37133418 23.58315468 97.81987631 21.25 90.875 C17.56630768 80.19635259 13.43285633 69.92400445 8.6171875 59.7109375 C7 56.125 7 56.125 7 54.125 C6.34 54.125 5.68 54.125 5 54.125 C4.86464844 54.64964844 4.72929688 55.17429687 4.58984375 55.71484375 C2.15337273 64.48322149 -1.4579968 72.76004999 -5 81.125 C-9.71563715 80.560075 -13.95460366 79.62395828 -18.4375 78.0625 C-19.48808594 77.70027344 -20.53867187 77.33804688 -21.62109375 76.96484375 C-22.79865234 76.54912109 -22.79865234 76.54912109 -24 76.125 C-23.39613235 70.89079452 -21.69202355 66.63940257 -19.5859375 61.875 C-18.90056509 60.28145489 -18.21568403 58.68769838 -17.53125 57.09375 C-16.45299511 54.60274509 -15.3701618 52.11398803 -14.27832031 49.62890625 C-13.22168577 47.21646382 -12.18396573 44.79656226 -11.1484375 42.375 C-10.81830658 41.63733398 -10.48817566 40.89966797 -10.14804077 40.13964844 C-8.29090386 35.75910384 -7.50463041 32.84923316 -9 28.125 C-10.02158133 26.33335232 -10.02158133 26.33335232 -11.44140625 24.94140625 C-11.93817871 24.40990967 -12.43495117 23.87841309 -12.94677734 23.33081055 C-13.47996582 22.78851807 -14.0131543 22.24622559 -14.5625 21.6875 C-15.38548584 20.83055542 -15.38548584 20.83055542 -16.22509766 19.95629883 C-17.80158651 18.33000905 -19.39659565 16.72469889 -21 15.125 C-22.03060547 14.07699219 -22.03060547 14.07699219 -23.08203125 13.0078125 C-39.9807435 -2.97049058 -60.52626961 -5.69194645 -82.77050781 -5.07177734 C-89.78115032 -4.64460938 -96.30143961 -2.93032536 -103 -0.875 C-104.31818545 -0.49452593 -105.63717778 -0.11683427 -106.95703125 0.2578125 C-107.96121094 0.54398437 -108.96539062 0.83015625 -110 1.125 C-110.33 -0.855 -110.66 -2.835 -111 -4.875 C-99.89555857 -9.19543665 -88.6093296 -12.23385999 -77 -14.875 C-76.21125488 -15.06481445 -75.42250977 -15.25462891 -74.60986328 -15.45019531 C-48.44893059 -21.3268123 -21.83749691 -15.13983381 0 0 Z " fill="#020202" transform="translate(541,283.875)"/>
    <path d="M0 0 C-1.91358258 5.99156908 -4.07092659 11.80893381 -6.52734375 17.59765625 C-6.86798859 18.40819962 -7.20863342 19.21874298 -7.55960083 20.05384827 C-8.29644151 21.80613828 -9.03476975 23.55780338 -9.77444458 25.30889893 C-11.38012859 29.11044883 -12.97829772 32.91514471 -14.57707214 36.71960449 C-15.42322286 38.73286494 -16.26975608 40.74596466 -17.11665344 42.75891113 C-21.79075492 53.87032421 -26.42841402 64.99685192 -31.0625 76.125 C-31.47519135 77.1156546 -31.88788269 78.1063092 -32.31307983 79.12698364 C-40.90042535 99.74093795 -49.45593908 120.36807285 -58 141 C-58.66 141 -59.32 141 -60 141 C-60.81498562 139.3970947 -61.62689927 137.79262722 -62.4375 136.1875 C-62.88996094 135.29417969 -63.34242188 134.40085937 -63.80859375 133.48046875 C-65 131 -65 131 -66 128 C-66.99 128 -67.98 128 -69 128 C-68.07636693 135.07308484 -66.79956407 141.28783617 -63.70703125 147.74609375 C-62.38112951 151.97286339 -64.2224785 155.85842506 -65.87011719 159.79931641 C-66.44641876 161.18698715 -66.44641876 161.18698715 -67.03436279 162.60269165 C-67.45099182 163.59231903 -67.86762085 164.58194641 -68.296875 165.6015625 C-68.72752258 166.63380951 -69.15817017 167.66605652 -69.60186768 168.72958374 C-70.5143136 170.91421561 -71.4289807 173.09792091 -72.34570312 175.28076172 C-73.73534695 178.59010475 -75.11828555 181.90218336 -76.5 185.21484375 C-77.39022876 187.34391572 -78.28084177 189.47282708 -79.171875 191.6015625 C-79.5804071 192.57904449 -79.98893921 193.55652649 -80.40985107 194.56362915 C-83.1563185 201.09758961 -86.03414035 207.56273866 -89 214 C-89.33 214 -89.66 214 -90 214 C-90 144.37 -90 74.74 -90 3 C-85.06370716 1.76592679 -80.70232671 0.71575918 -75.75 0.0625 C-74.56277344 -0.09992188 -73.37554687 -0.26234375 -72.15234375 -0.4296875 C-71.50120605 -0.51831055 -70.85006836 -0.60693359 -70.17919922 -0.69824219 C-65.88634802 -1.29268136 -61.59947908 -1.92732057 -57.3125 -2.5625 C-56.43883789 -2.68939209 -55.56517578 -2.81628418 -54.66503906 -2.94702148 C-53.84358398 -3.06891846 -53.02212891 -3.19081543 -52.17578125 -3.31640625 C-51.07617065 -3.47798218 -51.07617065 -3.47798218 -49.9543457 -3.64282227 C-33.71915771 -6.6099778 -15.51127808 -6.60665548 0 0 Z " fill="#FEFEFE" transform="translate(509,376)"/>
    <path d="M0 0 C17.38761592 14.19397218 24.50027234 31.96138542 27 54 C28.40038904 73.37296014 28.24808763 98.12786855 17 115 C14.44369507 115.36076355 14.44369507 115.36076355 11.17333984 115.34057617 C9.95222504 115.34034958 8.73111023 115.34012299 7.47299194 115.33988953 C6.13563677 115.32456852 4.7982853 115.30892051 3.4609375 115.29296875 C2.09616562 115.28737422 0.73138772 115.28310344 -0.63339233 115.28010559 C-4.22730107 115.2686454 -7.82084667 115.23916871 -11.41461182 115.20599365 C-15.0810454 115.17531771 -18.7475376 115.16160559 -22.4140625 115.14648438 C-29.60954064 115.11429964 -36.80471946 115.06308972 -44 115 C-43.47030396 111.42456667 -42.84274857 108.17064266 -41.49145508 104.81713867 C-41.18134491 104.0384996 -40.87123474 103.25986053 -40.55172729 102.45762634 C-40.2111026 101.61953934 -39.87047791 100.78145233 -39.51953125 99.91796875 C-39.15860382 99.01490494 -38.79767639 98.11184113 -38.42581177 97.18141174 C-37.63935357 95.21455947 -36.85032968 93.2487316 -36.05905151 91.28381348 C-33.90895568 85.94318325 -31.77856507 80.59471356 -29.6484375 75.24609375 C-29.19691818 74.11317902 -28.74539886 72.98026428 -28.28019714 71.8130188 C-24.77199378 62.9905054 -21.32809855 54.1444092 -17.9140625 45.28515625 C-17.53796247 44.30926827 -17.53796247 44.30926827 -17.15426445 43.31366539 C-14.68034769 36.89204962 -12.21258975 30.46807623 -9.74805832 24.04285336 C-9.05149185 22.22762139 -8.3539881 20.41274919 -7.65646362 18.59788513 C-6.80098693 16.37182741 -5.94723105 14.14510734 -5.0954895 11.9176178 C-4.71585052 10.92998947 -4.33621155 9.94236115 -3.94506836 8.92480469 C-3.61598984 8.06586609 -3.28691132 7.20692749 -2.94786072 6.32196045 C-2.06218048 4.1523226 -1.07924931 2.0790486 0 0 Z " fill="#FDFDFD" transform="translate(527,387)"/>
    <path d="M0 0 C5.84367651 1.53780961 13.75794126 4.61213333 17.21568298 9.83695984 C18.21287333 12.58707584 17.81590292 13.56173186 16.72094727 16.24145508 C16.38825333 17.07773437 16.05555939 17.91401367 15.71278381 18.77563477 C15.33447922 19.68112061 14.95617462 20.58660645 14.56640625 21.51953125 C14.18250229 22.47359863 13.79859833 23.42766602 13.40306091 24.41064453 C12.13661165 27.55035398 10.84938753 30.6811191 9.5625 33.8125 C8.23541972 37.08979871 6.91383592 40.36928086 5.59237671 43.64884949 C4.6965715 45.87077686 3.79895361 48.09197425 2.89956665 50.31245422 C-1.49204349 61.16480525 -5.69056543 72.0871474 -9.84225464 83.03311157 C-15.31889254 97.46299309 -21.17247821 111.69608288 -27 126 C-6.87 126 13.26 126 34 126 C32.44644136 129.88389661 31.38966501 132.09291286 28.9375 135.25 C28.41027344 135.93578125 27.88304687 136.6215625 27.33984375 137.328125 C26 139 26 139 25 140 C23.22096643 140.12322758 21.43713797 140.17789019 19.65405273 140.20532227 C18.5129454 140.22526749 17.37183807 140.24521271 16.19615173 140.26576233 C14.33368553 140.29083107 14.33368553 140.29083107 12.43359375 140.31640625 C11.16983414 140.33718735 9.90607452 140.35796844 8.60401917 140.37937927 C5.23881367 140.43383714 1.87359827 140.4840428 -1.49169922 140.53222656 C-4.92355901 140.58239759 -8.35532831 140.63810655 -11.78710938 140.69335938 C-18.52466761 140.80070191 -25.26229336 140.90244325 -32 141 C-32.33773438 141.92683594 -32.67546875 142.85367188 -33.0234375 143.80859375 C-33.46945312 145.00613281 -33.91546875 146.20367188 -34.375 147.4375 C-34.81585938 148.63246094 -35.25671875 149.82742188 -35.7109375 151.05859375 C-37 154 -37 154 -39 155 C-45.62664971 152.5062077 -54.63838102 148.65834185 -58 142 C-57.60375734 135.91723265 -55.54006195 130.8933137 -53.16015625 125.328125 C-52.57008537 123.92088417 -52.57008537 123.92088417 -51.96809387 122.48521423 C-50.67384898 119.4035398 -49.36818306 116.32684346 -48.0625 113.25 C-47.15105303 111.08538002 -46.24041952 108.92041736 -45.33056641 106.75512695 C-43.46445305 102.31698459 -41.59410902 97.88066335 -39.72021484 93.44580078 C-36.11398899 84.90744897 -32.54177755 76.35494925 -28.96844482 67.80279541 C-27.14720068 63.44675354 -25.32130047 59.09266386 -23.49609375 54.73828125 C-20.7234169 48.12237866 -17.95756312 41.50367127 -15.19787598 34.88233948 C-13.5176728 30.85136099 -11.83570279 26.8211208 -10.15362549 22.79092407 C-9.34720294 20.85735147 -8.54165127 18.92341541 -7.73699951 16.98910522 C-6.62765225 14.3225403 -5.51533308 11.65723388 -4.40234375 8.9921875 C-4.07097916 8.19342697 -3.73961456 7.39466644 -3.39820862 6.57170105 C-1.1138697 1.1138697 -1.1138697 1.1138697 0 0 Z " fill="#020202" transform="translate(509,377)"/>
    <path d="M0 0 C2.09809853 2.09809853 4.17684561 4.1920038 6.1875 6.375 C10.29490224 10.20857543 14.96359266 13.48179633 20 16 C19.36559706 21.76007012 17.30824615 26.75089825 15.17578125 32.0859375 C14.79189743 33.0605191 14.40801361 34.03510071 14.01249695 35.03921509 C12.78468 38.15335548 11.54892733 41.26426946 10.3125 44.375 C3.8190108 60.74387096 3.8190108 60.74387096 -2.54296875 77.1640625 C-3.00856201 78.37787598 -3.47415527 79.59168945 -3.95385742 80.84228516 C-5.9573618 86.88973571 -5.91709504 91.43334186 -3.375 97.25 C-0.35896616 102.59999642 4.01204292 106.32894221 10 108 C12.99323314 108.43482779 15.9860134 108.75047605 19 109 C19 110.32 19 111.64 19 113 C3.82 113 -11.36 113 -27 113 C-28.4276178 61.74852095 -28.4276178 61.74852095 -18.73486328 43.47119141 C-15.27932478 36.5571967 -12.47341166 29.34292446 -9.52905273 22.20001221 C-7.79084536 17.99999234 -6.01980842 13.81402753 -4.24609375 9.62890625 C-3.93296738 8.887509 -3.619841 8.14611176 -3.29722595 7.38224792 C-1.12169606 2.24339213 -1.12169606 2.24339213 0 0 Z " fill="#010101" transform="translate(446,527)"/>
    <path d="M0 0 C6.00222449 4.44817763 10.07530435 10.32323621 12.08203125 17.54296875 C13.30495593 26.00057866 11.82922412 32.46130467 7.08203125 39.54296875 C1.83016895 45.737473 -4.46295723 49.95003272 -12.61328125 50.8359375 C-21.60899989 51.26156613 -27.80964781 48.92092152 -34.73046875 43.23046875 C-40.64441455 35.96476391 -43.42538089 30.07101439 -43.32421875 20.625 C-42.38736465 13.51752031 -38.77139408 6.81651815 -33.48046875 1.98046875 C-23.64248817 -5.22271789 -10.735868 -6.35606116 0 0 Z " fill="#AD9653" transform="translate(562.91796875,216.45703125)"/>
    <path d="M0 0 C6.00957655 3.22619373 10.80157477 7.45250576 13.16015625 13.95703125 C14.16657445 21.26928845 14.42536838 28.92333268 10.41796875 35.3828125 C5.65177298 41.34795814 -0.05004292 44.31225037 -7.48046875 45.3125 C-14.37197052 45.66862509 -19.44909303 44.34290416 -24.83984375 39.95703125 C-31.00538248 33.1684486 -32.47684127 28.02520404 -32.234375 18.8671875 C-31.53442464 11.9300557 -28.80457699 7.61193651 -23.671875 3.015625 C-16.4443033 -2.06607712 -8.32183988 -3.05630158 0 0 Z " fill="#AD9652" transform="translate(406.83984375,702.04296875)"/>
    <path d="M0 0 C0.75925781 -0.04898438 1.51851562 -0.09796875 2.30078125 -0.1484375 C6.10387071 0.68562795 7.42001402 2.24239306 9.6875 5.375 C10.39666838 8.70533624 10.35037163 11.91951554 10.25 15.3125 C10.23485352 16.24312256 10.21970703 17.17374512 10.20410156 18.13256836 C9.93744368 26.43695425 9.34876103 36.18157894 3.671875 42.68359375 C0.13835917 45.69542909 -2.60631656 45.70757572 -7.1171875 45.6640625 C-9.3125 45.375 -9.3125 45.375 -11.8125 43.5625 C-16.14852451 37.23913092 -15.07552268 27.50215387 -13.97998047 20.140625 C-13.56507521 17.97138685 -13.08827585 15.83243503 -12.5625 13.6875 C-12.40563721 13.02919189 -12.24877441 12.37088379 -12.0871582 11.69262695 C-10.94677986 7.45435751 -9.31627664 4.56207797 -6.3125 1.375 C-4.04001762 0.23875881 -2.52947236 0.11053157 0 0 Z " fill="#090909" transform="translate(690.3125,883.625)"/>
    <path d="M0 0 C0.75925781 -0.04898438 1.51851563 -0.09796875 2.30078125 -0.1484375 C6.10387071 0.68562795 7.42001402 2.24239306 9.6875 5.375 C10.39666838 8.70533624 10.35037163 11.91951554 10.25 15.3125 C10.23485352 16.24312256 10.21970703 17.17374512 10.20410156 18.13256836 C9.93744368 26.43695425 9.34876103 36.18157894 3.671875 42.68359375 C0.13835917 45.69542909 -2.60631656 45.70757572 -7.1171875 45.6640625 C-9.3125 45.375 -9.3125 45.375 -11.8125 43.5625 C-16.14852451 37.23913092 -15.07552268 27.50215387 -13.97998047 20.140625 C-13.56507521 17.97138685 -13.08827585 15.83243503 -12.5625 13.6875 C-12.40563721 13.02919189 -12.24877441 12.37088379 -12.0871582 11.69262695 C-10.94677986 7.45435751 -9.31627664 4.56207797 -6.3125 1.375 C-4.04001762 0.23875881 -2.52947236 0.11053157 0 0 Z " fill="#090909" transform="translate(435.3125,883.625)"/>
    <path d="M0 0 C3.5386994 1.65139305 4.81070153 2.71605229 7 6 C7.87044327 13.34789773 6.92082964 20.68902522 5.6875 27.9375 C5.51118042 29.00121826 5.51118042 29.00121826 5.33129883 30.08642578 C4.3496467 35.39424704 3.04252884 39.9915133 -0.875 43.84375 C-3.40316582 45.21936964 -5.12976288 45.46499711 -8 45.5 C-9.2684375 45.54640625 -9.2684375 45.54640625 -10.5625 45.59375 C-13 45 -13 45 -15.2890625 43.00390625 C-17.56878907 39.00137262 -17.5279857 35.95981424 -17.375 31.4375 C-17.35993408 30.64118164 -17.34486816 29.84486328 -17.3293457 29.02441406 C-17.05719199 19.28976073 -16.76169096 9.02622935 -9.75 1.625 C-6.19452499 -0.47596251 -4.07335802 -0.50916975 0 0 Z " fill="#080808" transform="translate(548,884)"/>
    <path d="M0 0 C1.12535156 -0.07734375 1.12535156 -0.07734375 2.2734375 -0.15625 C5.2662876 0.67896398 6.77750985 2.25007016 8.63476562 4.69873047 C10.33550855 7.79243888 10.32040102 10.8857229 10.1875 14.3125 C10.17090332 15.0437207 10.15430664 15.77494141 10.13720703 16.52832031 C9.91069323 22.02802851 9.14820545 27.37032497 8 32.75 C7.86021729 33.45229736 7.72043457 34.15459473 7.57641602 34.87817383 C6.24134629 40.35601341 4.187073 42.51164334 -0.375 45.5 C-2.75390625 46.1640625 -2.75390625 46.1640625 -4.9375 46.125 C-5.66066406 46.13789062 -6.38382812 46.15078125 -7.12890625 46.1640625 C-10.64267994 45.12520767 -12.1568035 43.37173793 -14.375 40.5 C-16.19705298 29.98723379 -14.78167416 14.41321085 -9.453125 5.1640625 C-6.62671988 1.54073864 -4.51715459 0.18500292 0 0 Z " fill="#070707" transform="translate(328.375,883.5)"/>
    <path d="M0 0 C2.06183633 -0.08150744 4.12461349 -0.1394194 6.1875 -0.1875 C7.33605469 -0.22230469 8.48460937 -0.25710938 9.66796875 -0.29296875 C13.33289234 0.02926955 15.09664715 0.78767607 18 3 C20.4961968 6.74429521 20.62340633 9.6669412 20 14 C19.04529963 16.94666979 17.96977316 19.59563505 16 22 C13.35546875 23.2265625 13.35546875 23.2265625 11 24 C11.79124124 26.06266324 12.58301091 28.12512379 13.375 30.1875 C13.81585937 31.33605469 14.25671875 32.48460937 14.7109375 33.66796875 C15.49837568 35.70337715 16.31024831 37.72981229 17.1640625 39.73828125 C18 42 18 42 18 45 C15.69 45 13.38 45 11 45 C10.20443343 43.29347935 9.4137362 41.5846883 8.625 39.875 C8.18414063 38.92367187 7.74328125 37.97234375 7.2890625 36.9921875 C6.01515259 34.03517238 4.97391871 31.06738882 4 28 C3.86722656 29.14339844 3.73445312 30.28679688 3.59765625 31.46484375 C3.4194969 32.9557562 3.24109918 34.44664018 3.0625 35.9375 C2.93198242 37.06961914 2.93198242 37.06961914 2.79882812 38.22460938 C2.11328125 43.88671875 2.11328125 43.88671875 1 45 C-1.33297433 45.04092937 -3.66705225 45.04241723 -6 45 C-5.22926265 36.37087386 -4.41674068 27.74625982 -3.5625 19.125 C-3.44068359 17.83335937 -3.31886719 16.54171875 -3.19335938 15.2109375 C-3.06896484 13.96828125 -2.94457031 12.725625 -2.81640625 11.4453125 C-2.70756104 10.32656738 -2.59871582 9.20782227 -2.48657227 8.05517578 C-2.01632648 5.10251357 -1.22844788 2.71478449 0 0 Z " fill="#0B0B0B" transform="translate(737,884)"/>
    <path d="M0 0 C18.81 0 37.62 0 57 0 C44.99874407 12.00125593 30.60724818 17.14466305 13.6875 17.25 C12.46256836 17.2809375 12.46256836 17.2809375 11.21289062 17.3125 C5.46373122 17.34914803 1.27044292 16.3046816 -4 14 C-3.34346042 8.74768339 -1.96028396 5.22742388 0 0 Z " fill="#FDFCFC" transform="translate(476,518)"/>
    <path d="M0 0 C2.31 0 4.62 0 7 0 C8.65 7.92 10.3 15.84 12 24 C12.61810838 16.47610876 12.61810838 16.47610876 13.22631836 8.95141602 C13.30503174 8.01998779 13.38374512 7.08855957 13.46484375 6.12890625 C13.543396 5.17056885 13.62194824 4.21223145 13.70288086 3.22485352 C14 1 14 1 15 0 C17.33297433 -0.04092937 19.66705225 -0.04241723 22 0 C21.28668232 9.01297867 20.42593174 18.00654416 19.5 27 C19.36980469 28.29550781 19.23960937 29.59101562 19.10546875 30.92578125 C18.97785156 32.16714844 18.85023438 33.40851562 18.71875 34.6875 C18.60466797 35.80511719 18.49058594 36.92273438 18.37304688 38.07421875 C18.06790949 40.46739048 17.65650456 42.68391955 17 45 C14.69 45 12.38 45 10 45 C8.02 35.76 6.04 26.52 4 17 C3.34 26.24 2.68 35.48 2 45 C-0.31 45 -2.62 45 -5 45 C-4.5975533 34.25883647 -3.7212624 23.61784776 -2.5 12.9375 C-2.30410278 11.19750732 -2.30410278 11.19750732 -2.10424805 9.42236328 C-1.97703369 8.34325684 -1.84981934 7.26415039 -1.71875 6.15234375 C-1.60466797 5.18288818 -1.49058594 4.21343262 -1.37304688 3.21459961 C-1 1 -1 1 0 0 Z " fill="#0B0B0B" transform="translate(844,884)"/>
    <path d="M0 0 C2.22855574 -0.0814222 4.45797655 -0.13938079 6.6875 -0.1875 C8.54955078 -0.23970703 8.54955078 -0.23970703 10.44921875 -0.29296875 C14.2457708 0.02027812 16.01467371 0.69242347 19 3 C21.73308398 7.09962597 21.59846799 10.18952943 21 15 C19.69831645 19.88715919 18.00522602 23.8042202 13.625 26.5625 C10.01017807 27.99596387 7.81465385 28.12357329 4 28 C3.93941406 29.14339844 3.87882812 30.28679688 3.81640625 31.46484375 C3.73201572 32.95574305 3.64736698 34.44662775 3.5625 35.9375 C3.50352539 37.06961914 3.50352539 37.06961914 3.44335938 38.22460938 C3.11328125 43.88671875 3.11328125 43.88671875 2 45 C-0.33297433 45.04092937 -2.66705225 45.04241723 -5 45 C-4.40016743 34.79984221 -3.29435825 24.74604274 -1.9375 14.625 C-1.74897099 13.19536229 -1.56081819 11.76567492 -1.37304688 10.3359375 C-0.91967748 6.89004456 -0.46129972 3.4448414 0 0 Z " fill="#0C0C0C" transform="translate(123,884)"/>
    <path d="M0 0 C2 1 2 1 2.75854492 2.68109131 C2.99677979 3.40991516 3.23501465 4.13873901 3.48046875 4.88964844 C3.75415283 5.71430603 4.02783691 6.53896362 4.30981445 7.38861084 C4.7442688 8.7353891 4.7442688 8.7353891 5.1875 10.109375 C5.49067139 11.02833557 5.79384277 11.94729614 6.10620117 12.894104 C7.07786655 15.84380248 8.03925137 18.79672972 9 21.75 C9.96275935 24.68829153 10.92761333 27.62588271 11.89379883 30.56304932 C12.49504083 32.39309862 13.09393061 34.2239228 13.69018555 36.05560303 C14.77951792 39.38813595 15.86478497 42.67132178 17.19921875 45.91503906 C18 48 18 48 18 51 C9.09 51 0.18 51 -9 51 C-8.00444206 46.02221028 -6.58266826 41.3718174 -5.03515625 36.546875 C-2.59762825 28.19489228 -1.51298848 20.11309741 -0.875 11.4375 C-0.74544922 9.78137695 -0.74544922 9.78137695 -0.61328125 8.09179688 C-0.40313479 5.39491733 -0.19883752 2.69773286 0 0 Z " fill="#F9F9F8" transform="translate(588,451)"/>
    <path d="M0 0 C0.66 0 1.32 0 2 0 C7.13104651 10.1617653 11.47440058 20.51413637 15.4375 31.1875 C16.09274658 32.94187378 16.09274658 32.94187378 16.76123047 34.73168945 C18.63159143 39.84171676 20.23026493 44.59480504 21 50 C20.05125 49.175 19.1025 48.35 18.125 47.5 C16.75123052 46.33188463 15.37611137 45.16535557 14 44 C13.27425781 43.37351562 12.54851563 42.74703125 11.80078125 42.1015625 C5.02230072 36.43228787 -2.26218775 32.1922441 -10 28 C-9.43116017 23.9158873 -8.52141737 20.40339371 -6.93359375 16.6015625 C-6.53076172 15.62832031 -6.12792969 14.65507812 -5.71289062 13.65234375 C-5.29201172 12.65332031 -4.87113281 11.65429688 -4.4375 10.625 C-4.01275391 9.60277344 -3.58800781 8.58054687 -3.15039062 7.52734375 C-2.10587881 5.01582095 -1.05560951 2.50687381 0 0 Z " fill="#F8F8F7" transform="translate(546,338)"/>
    <path d="M0 0 C5.61 0 11.22 0 17 0 C17 2.31 17 4.62 17 7 C16 8 16 8 13.71484375 8.09765625 C11.14322917 8.06510417 8.57161458 8.03255208 6 8 C6 11.3 6 14.6 6 18 C8.97 18 11.94 18 15 18 C14.67 20.64 14.34 23.28 14 26 C10.7 26 7.4 26 4 26 C4 29.63 4 33.26 4 37 C7.63 37 11.26 37 15 37 C14.67 39.64 14.34 42.28 14 45 C7.73 45 1.46 45 -5 45 C-4.36645112 34.79652854 -3.29506865 24.75134177 -1.9375 14.625 C-1.74897099 13.19536229 -1.56081819 11.76567492 -1.37304688 10.3359375 C-0.92035938 6.88992872 -0.46005516 3.44506421 0 0 Z " fill="#111111" transform="translate(947,884)"/>
    <path d="M0 0 C1.58206057 0.00667536 3.16410534 0.0186375 4.74609375 0.03515625 C5.55240234 0.03966797 6.35871094 0.04417969 7.18945312 0.04882812 C9.18753131 0.06065107 11.18557158 0.07858711 13.18359375 0.09765625 C12.85359375 2.73765625 12.52359375 5.37765625 12.18359375 8.09765625 C8.88359375 8.09765625 5.58359375 8.09765625 2.18359375 8.09765625 C1.85359375 11.39765625 1.52359375 14.69765625 1.18359375 18.09765625 C4.15359375 18.09765625 7.12359375 18.09765625 10.18359375 18.09765625 C10.22601098 20.430604 10.22452312 22.76468192 10.18359375 25.09765625 C9.18359375 26.09765625 9.18359375 26.09765625 7.1171875 26.1953125 C3.65039062 26.14648438 3.65039062 26.14648438 0.18359375 26.09765625 C-0.14640625 29.72765625 -0.47640625 33.35765625 -0.81640625 37.09765625 C2.81359375 37.09765625 6.44359375 37.09765625 10.18359375 37.09765625 C10.22601098 39.430604 10.22452312 41.76468192 10.18359375 44.09765625 C9.18359375 45.09765625 9.18359375 45.09765625 7.41772461 45.21118164 C6.66885986 45.20594482 5.91999512 45.20070801 5.1484375 45.1953125 C4.33955078 45.19208984 3.53066406 45.18886719 2.69726562 45.18554688 C1.84712891 45.17716797 0.99699219 45.16878906 0.12109375 45.16015625 C-0.73291016 45.15564453 -1.58691406 45.15113281 -2.46679688 45.14648438 C-4.58336288 45.13465998 -6.6998931 45.11672394 -8.81640625 45.09765625 C-8.41395955 34.35649272 -7.53766865 23.71550401 -6.31640625 13.03515625 C-6.12050903 11.29516357 -6.12050903 11.29516357 -5.9206543 9.52001953 C-5.79343994 8.44091309 -5.66622559 7.36180664 -5.53515625 6.25 C-5.42107422 5.28054443 -5.30699219 4.31108887 -5.18945312 3.31225586 C-4.55217321 -0.47096803 -4.11611495 0.10532536 0 0 Z " fill="#101010" transform="translate(795.81640625,883.90234375)"/>
    <path d="M0 0 C0.89203125 0.01804687 1.7840625 0.03609375 2.703125 0.0546875 C3.71632813 0.08949219 3.71632813 0.08949219 4.75 0.125 C4.75 2.435 4.75 4.745 4.75 7.125 C0.295 7.62 0.295 7.62 -4.25 8.125 C-8.22539767 16.87755621 -8.58324614 27.62748509 -8.25 37.125 C-6.6 37.785 -4.95 38.445 -3.25 39.125 C-2.92 33.515 -2.59 27.905 -2.25 22.125 C0.06 22.125 2.37 22.125 4.75 22.125 C5.06918373 29.98046636 4.10709504 37.39440505 2.75 45.125 C0.50106046 45.23323773 -1.74937575 45.31069645 -4 45.375 C-5.25296875 45.42140625 -6.5059375 45.4678125 -7.796875 45.515625 C-11.25 45.125 -11.25 45.125 -13.640625 43.296875 C-18.41850348 36.84905841 -16.73890572 25.76662862 -15.71875 18.16796875 C-13.47912819 6.73859438 -13.47912819 6.73859438 -9.25 2.125 C-6.09064731 0.13755471 -3.69819274 -0.09732086 0 0 Z " fill="#0A0A0A" transform="translate(493.25,883.875)"/>
    <path d="M0 0 C1.58206057 0.00667536 3.16410534 0.0186375 4.74609375 0.03515625 C5.55240234 0.03966797 6.35871094 0.04417969 7.18945312 0.04882812 C9.18753131 0.06065107 11.18557158 0.07858711 13.18359375 0.09765625 C12.85359375 2.73765625 12.52359375 5.37765625 12.18359375 8.09765625 C8.88359375 8.09765625 5.58359375 8.09765625 2.18359375 8.09765625 C1.85359375 11.72765625 1.52359375 15.35765625 1.18359375 19.09765625 C4.15359375 19.09765625 7.12359375 19.09765625 10.18359375 19.09765625 C10.18359375 21.40765625 10.18359375 23.71765625 10.18359375 26.09765625 C6.88359375 26.09765625 3.58359375 26.09765625 0.18359375 26.09765625 C0.12300781 26.79890625 0.06242188 27.50015625 0 28.22265625 C-0.49837799 33.8658286 -1.07462301 39.48129742 -1.81640625 45.09765625 C-4.12640625 45.09765625 -6.43640625 45.09765625 -8.81640625 45.09765625 C-8.41395955 34.35649272 -7.53766865 23.71550401 -6.31640625 13.03515625 C-6.12050903 11.29516357 -6.12050903 11.29516357 -5.9206543 9.52001953 C-5.79343994 8.44091309 -5.66622559 7.36180664 -5.53515625 6.25 C-5.42107422 5.28054443 -5.30699219 4.31108887 -5.18945312 3.31225586 C-4.55217321 -0.47096803 -4.11611495 0.10532536 0 0 Z " fill="#0C0C0C" transform="translate(632.81640625,883.90234375)"/>
    <path d="M0 0 C0.90105469 0.00902344 1.80210937 0.01804687 2.73046875 0.02734375 C3.41753906 0.03894531 4.10460937 0.05054688 4.8125 0.0625 C4.8125 2.3725 4.8125 4.6825 4.8125 7.0625 C0.3575 7.5575 0.3575 7.5575 -4.1875 8.0625 C-8.86097418 17.20625382 -8.31816863 27.00101541 -8.1875 37.0625 C-4.8875 37.3925 -1.5875 37.7225 1.8125 38.0625 C1.4825 40.3725 1.1525 42.6825 0.8125 45.0625 C-1.10345968 45.14383791 -3.02041932 45.20184367 -4.9375 45.25 C-6.53851563 45.30220703 -6.53851563 45.30220703 -8.171875 45.35546875 C-11.53486544 45.02875336 -12.82391253 44.43160987 -15.1875 42.0625 C-18.46406991 32.23279028 -16.86430822 16.0093932 -12.70703125 6.7734375 C-9.50077755 1.05328309 -6.47272988 -0.08406143 0 0 Z " fill="#090909" transform="translate(279.1875,883.9375)"/>
    <path d="M0 0 C2.31 0 4.62 0 7 0 C6.53732394 8.25511492 5.90497775 16.46882448 5 24.6875 C4.8755249 25.83581299 4.8755249 25.83581299 4.74853516 27.00732422 C4.35984801 30.43525464 3.83868302 33.64526792 3 37 C6.63 37 10.26 37 14 37 C14 39.64 14 42.28 14 45 C7.73 45 1.46 45 -5 45 C-3.9461421 29.87403961 -2.50683009 14.95741954 0 0 Z " fill="#0F0F0F" transform="translate(374,884)"/>
    <path d="M0 0 C-0.33 2.31 -0.66 4.62 -1 7 C-2.65 7.66 -4.3 8.32 -6 9 C-6.28472445 13.36577483 -5.91285026 16.59767951 -4.5 20.75 C-2.45335854 27.13357216 -1.73615061 33.62973495 -4.125 40 C-7.64163776 43.75108028 -10.76866865 44.94041945 -15.875 45.1875 C-16.90625 45.125625 -17.9375 45.06375 -19 45 C-18.67 42.69 -18.34 40.38 -18 38 C-15.69 37.34 -13.38 36.68 -11 36 C-10.78244236 30.73102586 -11.50928993 26.48417473 -13 21.4375 C-16.26731551 10.35358594 -16.26731551 10.35358594 -13.25 4.75 C-9.18744705 -0.21534249 -6.32595867 -0.2433061 0 0 Z " fill="#0A0A0A" transform="translate(913,884)"/>
    <path d="M0 0 C-0.33 2.31 -0.66 4.62 -1 7 C-2.65 7.66 -4.3 8.32 -6 9 C-6.28472445 13.36577483 -5.91285026 16.59767951 -4.5 20.75 C-2.45335854 27.13357216 -1.73615061 33.62973495 -4.125 40 C-7.64163776 43.75108028 -10.76866865 44.94041945 -15.875 45.1875 C-16.90625 45.125625 -17.9375 45.06375 -19 45 C-18.67 42.69 -18.34 40.38 -18 38 C-15.69 37.34 -13.38 36.68 -11 36 C-10.78244236 30.73102586 -11.50928993 26.48417473 -13 21.4375 C-16.26731551 10.35358594 -16.26731551 10.35358594 -13.25 4.75 C-9.18744705 -0.21534249 -6.32595867 -0.2433061 0 0 Z " fill="#0A0A0A" transform="translate(191,884)"/>
    <path d="M0 0 C2.31 0 4.62 0 7 0 C6.32553783 9.39287758 5.46734875 18.75799927 4.5 28.125 C4.36980469 29.424375 4.23960937 30.72375 4.10546875 32.0625 C3.91404297 33.92261719 3.91404297 33.92261719 3.71875 35.8203125 C3.60466797 36.93680176 3.49058594 38.05329102 3.37304688 39.20361328 C3 42 3 42 2 45 C-0.31 45 -2.62 45 -5 45 C-4.56248294 35.01254169 -3.63935249 25.11859289 -2.5 15.1875 C-2.30410278 13.46104248 -2.30410278 13.46104248 -2.10424805 11.69970703 C-1.97703369 10.6167334 -1.84981934 9.53375977 -1.71875 8.41796875 C-1.60466797 7.44625732 -1.49058594 6.4745459 -1.37304688 5.47338867 C-1 3 -1 3 0 0 Z " fill="#0D0D0D" transform="translate(225,884)"/>
    <path d="M0 0 C2.625 0.375 2.625 0.375 5 1 C5.41758986 11.03762284 4.76462482 20.31113138 2 30 C1.34 30.66 0.68 31.32 0 32 C-3.53571429 31.46428571 -3.53571429 31.46428571 -5 30 C-5.72099111 23.23377574 -4.77103806 16.59409455 -3.625 9.9375 C-3.49899414 9.18726563 -3.37298828 8.43703125 -3.24316406 7.6640625 C-2.25112138 2.25112138 -2.25112138 2.25112138 0 0 Z " fill="#F1F1F1" transform="translate(688,891)"/>
    <path d="M0 0 C2.625 0.375 2.625 0.375 5 1 C5.41758986 11.03762284 4.76462482 20.31113138 2 30 C1.34 30.66 0.68 31.32 0 32 C-3.53571429 31.46428571 -3.53571429 31.46428571 -5 30 C-5.72099111 23.23377574 -4.77103806 16.59409455 -3.625 9.9375 C-3.49899414 9.18726563 -3.37298828 8.43703125 -3.24316406 7.6640625 C-2.25112138 2.25112138 -2.25112138 2.25112138 0 0 Z " fill="#F1F1F1" transform="translate(433,891)"/>
    <path d="M0 0 C1.65 0.33 3.3 0.66 5 1 C5.26661109 7.16167857 4.8869636 13.1953474 4.1875 19.3125 C4.08236084 20.3344043 4.08236084 20.3344043 3.97509766 21.37695312 C3.45678008 25.58556769 2.44585893 28.5355916 0 32 C-3.875 31.125 -3.875 31.125 -5 30 C-5.58202802 21.39139945 -6.36401013 9.06688375 -1.42578125 1.62890625 C-0.95527344 1.09136719 -0.48476563 0.55382812 0 0 Z " fill="#F3F3F3" transform="translate(326,891)"/>
    <path d="M0 0 C4.875 0.875 4.875 0.875 6 2 C5.96097929 4.66241318 5.85634679 7.28251043 5.6875 9.9375 C5.63899902 10.70787598 5.59049805 11.47825195 5.54052734 12.27197266 C4.49427163 27.32730788 4.49427163 27.32730788 1.4296875 30.7578125 C0.95789063 31.16773438 0.48609375 31.57765625 0 32 C-1.32 31.34 -2.64 30.68 -4 30 C-4.68680445 7.03020668 -4.68680445 7.03020668 0 0 Z " fill="#F4F4F4" transform="translate(542,891)"/>
    <path d="M0 0 C0 2.64 0 5.28 0 8 C-7.26 8 -14.52 8 -22 8 C-22 6.68 -22 5.36 -22 4 C-20.69675781 3.81824219 -20.69675781 3.81824219 -19.3671875 3.6328125 C-18.21476562 3.46523438 -17.06234375 3.29765625 -15.875 3.125 C-14.16957031 2.88136719 -14.16957031 2.88136719 -12.4296875 2.6328125 C-8.15209873 1.84355353 -4.35031239 0 0 0 Z " fill="#050505" transform="translate(389,632)"/>
    <path d="M0 0 C1.98 0 3.96 0 6 0 C7.65766798 1.65766798 7.21049503 3.60346405 7.25 5.875 C7.28867188 7.20144531 7.28867188 7.20144531 7.328125 8.5546875 C7 11 7 11 5.796875 12.8203125 C4 14 4 14 -1 14 C-0.67 9.38 -0.34 4.76 0 0 Z " fill="#F3F3F3" transform="translate(129,891)"/>
    <path d="M0 0 C1.98 0 3.96 0 6 0 C7 1 7 1 7.375 4.75 C7.3425624 8.35706115 7.04153661 8.94611467 4.6875 12 C2 14 2 14 -1 14 C-0.67 9.38 -0.34 4.76 0 0 Z " fill="#F1F1F1" transform="translate(742,891)"/>
    <path d="M0 0 C2.64 0 5.28 0 8 0 C4.125 5.875 4.125 5.875 3 7 C1.33382885 7.04063832 -0.33388095 7.042721 -2 7 C-1.125 2.25 -1.125 2.25 0 0 Z " fill="#0E0E0E" transform="translate(328,874)"/>
    </svg>